<svg xmlns="http://www.w3.org/2000/svg" xmlns:xlink="http://www.w3.org/1999/xlink" version="1.1" enable-background="new 0 0 100 100" xml:space="preserve" width="81.3225807195895" height="76.096774292786" style=""><rect id="backgroundrect" width="100%" height="100%" x="0" y="0" fill="none" stroke="none" class="selected" style=""/><g class="currentLayer" style=""><title>Layer 1</title><path d="M63.78467769622803,58.83677410125732 l-7.587,-8.172 c-0.8430000000000001,-0.908 -2.263,-0.9610000000000001 -3.171,-0.11800000000000002 l-2.948,2.738 c-0.20700000000000002,-0.42800000000000005 -0.458,-0.8460000000000001 -0.7670000000000001,-1.24 c0,0 -7.021,-7.1 -9.053,-9.707 c-2.033,-2.607 -7.215,-11.143 -7.215,-11.143 c-0.14200000000000002,-0.18200000000000002 -0.29200000000000004,-0.35300000000000004 -0.44700000000000006,-0.516 c0.46900000000000003,0.04000000000000001 0.9520000000000001,-0.06000000000000001 1.3800000000000001,-0.32900000000000007 l3.474,-2.187 c1.048,-0.6600000000000001 1.363,-2.045 0.7030000000000001,-3.094 l-5.942,-9.437 c-0.6600000000000001,-1.048 -2.044,-1.363 -3.092,-0.7030000000000001 l-3.475,2.187 c-0.277,0.17500000000000002 -0.5,0.402 -0.6700000000000002,0.6590000000000001 l-1.428,1.036 c-2.6750000000000003,1.939 -2.981,4.596 -1.855,8.267 c0,0 2.6310000000000002,8.085 9.944,18.17 c7.017,9.675 12.717,15.83 18.094,19.853 c3.137,2.349 5.68,3.271 8.354,1.331 l1.498,-1.086 c0.39000000000000007,-0.07900000000000001 0.7650000000000001,-0.255 1.077,-0.546 l3.008,-2.793 C64.57567769622803,61.16377410125732 64.62767769622803,59.74477410125732 63.78467769622803,58.83677410125732 z" id="svg_1" class="" fill="#616161" fill-opacity="1"/><path d="M70.52567769622803,35.30477410125732 C69.66267769622803,18.077774101257326 55.37667769622803,4.3287741012573235 37.939677696228024,4.3287741012573235 c-17.992,0 -32.63,14.637 -32.63,32.629 S19.947677696228027,69.58677410125732 37.939677696228024,69.58677410125732 c1.104,0 2,-0.8960000000000001 2,-2 s-0.8960000000000001,-2 -2,-2 c-15.786,0 -28.63,-12.843 -28.63,-28.629 s12.844,-28.629 28.63,-28.629 c15.229,0 27.715,11.955 28.576,26.973 l-6.41,-0.005000000000000001 l8.454,9.536 l8.471,-9.524000000000001 L70.52567769622803,35.30477410125732 z" id="svg_2" class="" fill-opacity="1" fill="#616161"/></g></svg>