<?xml version="1.0"?>
<svg xmlns="http://www.w3.org/2000/svg" id="Layer_1" enable-background="new 0 0 511.403 511.403" height="512px" viewBox="0 0 511.403 511.403" width="512px"><g><path d="m78.783 411.334c9.352-6.86 11.371-20.002 4.511-29.354-26.994-36.797-41.262-80.453-41.262-126.248 0-117.818 95.852-213.67 213.67-213.67s213.67 95.852 213.67 213.67c0 45.795-14.269 89.451-41.263 126.249-6.86 9.352-4.84 22.494 4.511 29.354 9.371 6.874 22.508 4.821 29.354-4.511 72.991-99.5 65.676-240.712-25.488-331.875-99.916-99.917-261.638-99.932-361.568 0-91.164 91.163-98.479 232.376-25.488 331.875 6.859 9.35 20.001 11.369 29.353 4.51z" data-original="#000000" class="active-path" data-old_color="#000000" fill="#333333"/><path d="m287.702 276.732c40.988 0 74.333-33.346 74.333-74.333s-33.346-74.333-74.333-74.333h-74.667c-11.598 0-21 9.402-21 21v85.667h-21.667c-11.598 0-21 9.402-21 21s9.402 21 21 21h21.667v22h-21.667c-11.598 0-21 9.402-21 21s9.402 21 21 21h21.667v21.667c0 11.598 9.402 21 21 21s21-9.402 21-21v-21.667h43c11.598 0 21-9.402 21-21s-9.402-21-21-21h-43v-22h53.667zm32.333-74.334c0 17.829-14.505 32.333-32.333 32.333h-53.667v-64.667h53.667c17.828.001 32.333 14.506 32.333 32.334z" data-original="#000000" class="active-path" data-old_color="#000000" fill="#333333"/><path d="m490.368 469.398h-469.333c-11.598 0-21 9.402-21 21s9.402 21 21 21h469.333c11.598 0 21-9.402 21-21s-9.402-21-21-21z" data-original="#000000" class="active-path" data-old_color="#000000" fill="#333333"/></g> </svg>
